<svg width="21" height="21" viewBox="0 0 21 21" fill="none" xmlns="http://www.w3.org/2000/svg">
<path d="M19.5 9.65999L19.4985 9.65846L11.3401 1.50034C10.9923 1.15244 10.53 0.960938 10.0382 0.960938C9.54639 0.960938 9.08405 1.15244 8.73615 1.50034L0.581992 9.65434C0.579245 9.65709 0.576346 9.65999 0.573752 9.66274C-0.140361 10.381 -0.13914 11.5463 0.577262 12.2627C0.904563 12.5901 1.33669 12.7797 1.79888 12.7996C1.8178 12.8015 1.83672 12.8024 1.8558 12.8024H2.18081V18.8061C2.18081 19.9943 3.14761 20.961 4.33581 20.961H7.52765C7.85129 20.961 8.11359 20.6985 8.11359 20.375V15.668C8.11359 15.1259 8.55472 14.6849 9.09687 14.6849H10.9795C11.5216 14.6849 11.9626 15.1259 11.9626 15.668V20.375C11.9626 20.6985 12.2249 20.961 12.5486 20.961H15.7404C16.9288 20.961 17.8954 19.9943 17.8954 18.8061V12.8024H18.1969C18.6886 12.8024 19.1509 12.6109 19.499 12.2628C20.2161 11.5454 20.2164 10.3779 19.5 9.65999Z" fill="#212225"/>
</svg>
