<svg width="115" height="114" viewBox="0 0 115 114" fill="none" xmlns="http://www.w3.org/2000/svg">
<path d="M86.4449 98.5542L57.7272 106.287L29.0091 98.5542L22.3822 26.7601H93.0726L86.4449 98.5542Z" fill="#212225"/>
<path d="M57.7269 32.5753V100.119L57.7919 100.137L81.0318 93.8792L86.3961 32.5753H57.7269Z" fill="#28292C"/>
<path d="M57.7015 50.5267L37.1473 59.087L37.8289 67.5623L57.7015 59.0655L78.8407 50.0274L79.7171 41.3575L57.7015 50.5267Z" fill="white"/>
<path d="M37.147 59.087L37.8287 67.5623L57.7012 59.0655V50.5267L37.147 59.087Z" fill="url(#paint0_linear)"/>
<path d="M79.7171 41.3578L57.7014 50.5267V59.0655L78.8407 50.0275L79.7171 41.3578Z" fill="url(#paint1_linear)"/>
<path d="M37.1786 59.087L37.8605 67.5623L68.3523 67.6595L67.6703 78.9597L57.6367 81.7845L47.9915 79.3492L47.407 72.3351H38.4449L39.614 85.8759L57.7341 91.2337L75.756 85.9731L78.0941 59.087H37.1786Z" fill="url(#paint2_linear)"/>
<path opacity="0.05" d="M57.7015 59.087H37.1473L37.8289 67.5623L57.7015 67.6257V59.087ZM57.7015 81.7575L57.604 81.7847L47.9601 79.3494L47.3757 72.3354H38.4138L39.5826 85.8762L57.7015 91.2339V81.7575Z" fill="black"/>
<path d="M35.2961 41.3578H79.7171L78.8407 50.0277H36.3676L35.2961 41.3578Z" fill="url(#paint3_linear)"/>
<path opacity="0.05" d="M57.7015 41.3578H35.2961L36.3676 50.0277H57.7015V41.3578Z" fill="black"/>
<defs>
<linearGradient id="paint0_linear" x1="47.4241" y1="67.5625" x2="47.4241" y2="50.5269" gradientUnits="userSpaceOnUse">
<stop offset="0.387" stop-color="#D1D3D4" stop-opacity="0"/>
<stop offset="1" stop-color="#D1D3D4"/>
</linearGradient>
<linearGradient id="paint1_linear" x1="68.709" y1="59.0657" x2="68.709" y2="41.358" gradientUnits="userSpaceOnUse">
<stop offset="0.387" stop-color="#D1D3D4" stop-opacity="0"/>
<stop offset="1" stop-color="#D1D3D4"/>
</linearGradient>
<linearGradient id="paint2_linear" x1="37.1786" y1="75.1605" x2="78.0939" y2="75.1605" gradientUnits="userSpaceOnUse">
<stop stop-color="#E8E7E5"/>
<stop offset="1" stop-color="white"/>
</linearGradient>
<linearGradient id="paint3_linear" x1="35.2961" y1="45.6927" x2="79.7169" y2="45.6927" gradientUnits="userSpaceOnUse">
<stop stop-color="#E8E7E5"/>
<stop offset="1" stop-color="white"/>
</linearGradient>
</defs>
</svg>
