<svg width="26" height="34" viewBox="0 0 26 34" fill="none" xmlns="http://www.w3.org/2000/svg">
<path d="M17.0563 0.23902L17.0485 0.231203C16.9033 0.0814756 16.7031 -0.00210734 16.4944 0.000297932C16.4661 -0.000904704 16.4376 0.00150056 16.4099 0.00811506H4.00236C1.79252 0.00901705 0.00120263 1.80034 0 4.01047V29.8719C0.00120263 32.0817 1.79252 33.873 4.00236 33.8742H21.9976C24.2078 33.873 25.9991 32.0817 26 29.8719V9.48275C25.9985 9.2789 25.9185 9.08317 25.7769 8.93645L17.0563 0.23902ZM17.2641 2.61722L23.3909 8.7284H19.7271C18.3684 8.72449 17.268 7.62408 17.2641 6.26541V2.61722ZM24.4606 29.8562C24.4567 31.2149 23.3563 32.3153 21.9976 32.3192H4.00236C2.64369 32.3153 1.54358 31.2149 1.53937 29.8562V3.99484C1.54358 2.63647 2.64369 1.53606 4.00236 1.53185H15.7247V6.26541C15.7259 8.47554 17.5172 10.2669 19.7271 10.2678H24.4606V29.8562Z" fill="#FFD500"/>
<path d="M5.51022 21.4357H15.1006C15.5254 21.4357 15.8703 21.0912 15.8703 20.666C15.8703 20.2409 15.5254 19.8964 15.1006 19.8964H5.51022C5.08509 19.8964 4.74054 20.2409 4.74054 20.666C4.74054 21.0912 5.08509 21.4357 5.51022 21.4357Z" fill="#FFD500"/>
<path d="M4.74054 26.4931C4.74174 26.9176 5.08569 27.2616 5.51022 27.2628H20.4884C20.9132 27.2628 21.2581 26.9182 21.2581 26.4931C21.2581 26.0679 20.9132 25.7234 20.4884 25.7234H5.51022C5.08569 25.7246 4.74174 26.0685 4.74054 26.4931Z" fill="#FFD500"/>
<path d="M8.58951 11.0298C10.1496 11.0298 11.4142 9.76492 11.4142 8.20511C11.4142 6.64499 10.1496 5.38013 8.58951 5.38013C7.0294 5.38013 5.76483 6.64499 5.76483 8.20511C5.76573 9.76462 7.0297 11.0286 8.58951 11.0298ZM8.58951 6.92731C9.29937 6.92731 9.87483 7.50277 9.87483 8.21262C9.87483 8.92248 9.29937 9.49794 8.58951 9.49794C7.87966 9.49794 7.3042 8.92248 7.3042 8.21262C7.3054 7.50337 7.88026 6.92851 8.58951 6.92731Z" fill="#FFD500"/>
<path d="M5.51022 16.7792C5.93475 16.778 6.27871 16.434 6.27991 16.0095V15.3938C6.27991 14.1184 7.31357 13.0847 8.58896 13.0847C9.86405 13.0847 10.898 14.1184 10.898 15.3938V16.0095C10.898 16.4346 11.2426 16.7792 11.6677 16.7792C12.0928 16.7792 12.4374 16.4346 12.4374 16.0095V15.3938C12.4374 13.2684 10.7143 11.5453 8.58896 11.5453C6.46361 11.5453 4.74054 13.2684 4.74054 15.3938V16.0095C4.74174 16.434 5.08569 16.778 5.51022 16.7792Z" fill="#FFD500"/>
</svg>
