<svg width="26" height="26" viewBox="0 0 26 26" fill="none" xmlns="http://www.w3.org/2000/svg">
<path d="M25.2383 0H22.1914C21.7707 0 21.4297 0.341047 21.4297 0.761719V1.52344H15.1541C14.8397 0.636898 13.993 0 13 0C12.007 0 11.1603 0.636898 10.8459 1.52344H4.57031V0.761719C4.57031 0.341047 4.22927 0 3.80859 0H0.761719C0.341047 0 0 0.341047 0 0.761719V3.80859C0 4.22927 0.341047 4.57031 0.761719 4.57031H3.80859C4.22927 4.57031 4.57031 4.22927 4.57031 3.80859V3.03672H7.73789C4.98982 4.77719 3.31932 7.71748 3.11838 10.8389C2.22107 11.1474 1.57422 11.9993 1.57422 13C1.57422 14.26 2.59934 15.2852 3.85938 15.2852C5.11941 15.2852 6.14453 14.26 6.14453 13C6.14453 12.0159 5.51916 11.175 4.64496 10.854C4.91542 7.26644 7.49877 4.17655 10.9533 3.29987C11.3278 4.05204 12.1043 4.57031 13 4.57031C13.8957 4.57031 14.6722 4.05204 15.0467 3.29992C18.5013 4.17661 21.0846 7.26649 21.355 10.854C20.4808 11.175 19.8555 12.0159 19.8555 13C19.8555 14.26 20.8806 15.2852 22.1406 15.2852C23.4007 15.2852 24.4258 14.26 24.4258 13C24.4258 11.9993 23.7789 11.1474 22.8816 10.8389C22.6803 7.71123 21.0048 4.78395 18.2621 3.04688H21.4297V3.80859C21.4297 4.22927 21.7707 4.57031 22.1914 4.57031H25.2383C25.659 4.57031 26 4.22927 26 3.80859V0.761719C26 0.341047 25.659 0 25.2383 0ZM3.04688 3.04688H1.52344V1.52344H3.04688V3.04688ZM3.85938 13.7617C3.43936 13.7617 3.09766 13.42 3.09766 13C3.09766 12.58 3.43936 12.2383 3.85938 12.2383C4.27939 12.2383 4.62109 12.58 4.62109 13C4.62109 13.42 4.27939 13.7617 3.85938 13.7617ZM13 3.04688C12.58 3.04688 12.2383 2.70517 12.2383 2.28516C12.2383 1.86514 12.58 1.52344 13 1.52344C13.42 1.52344 13.7617 1.86514 13.7617 2.28516C13.7617 2.70517 13.42 3.04688 13 3.04688ZM22.1406 12.2383C22.5606 12.2383 22.9023 12.58 22.9023 13C22.9023 13.42 22.5606 13.7617 22.1406 13.7617C21.7206 13.7617 21.3789 13.42 21.3789 13C21.3789 12.58 21.7206 12.2383 22.1406 12.2383ZM24.4766 3.04688H22.9531V1.52344H24.4766V3.04688Z" fill="#FF001F"/>
<path d="M19.7275 15.6243L13.6337 6.48371C13.6335 6.48341 13.6333 6.4831 13.6331 6.48275C13.6309 6.4795 13.6285 6.4764 13.6263 6.4732C13.6158 6.45802 13.6048 6.44339 13.5933 6.42912C13.2723 6.03029 12.6611 6.0572 12.3737 6.4732C12.3715 6.4764 12.3691 6.4795 12.3669 6.48275C12.3667 6.4831 12.3664 6.48336 12.3662 6.48371L6.27249 15.6243C6.07105 15.9264 6.11091 16.3287 6.36766 16.5855C7.88739 18.1052 8.85467 20.0918 9.11817 22.2172C8.99991 22.3128 8.8857 22.4152 8.77743 22.526C8.06198 23.2578 7.66796 24.2211 7.66796 25.2382C7.66796 25.6589 8.00901 26 8.42968 26H17.5703C17.991 26 18.332 25.6589 18.332 25.2382C18.332 24.2211 17.938 23.2578 17.2226 22.5259C17.1143 22.4151 17.0001 22.3127 16.8818 22.2171C17.1453 20.0916 18.1126 18.1051 19.6323 16.5855C19.8891 16.3287 19.9289 15.9264 19.7275 15.6243ZM13 15.2851C13.42 15.2851 13.7617 15.6268 13.7617 16.0468C13.7617 16.4669 13.42 16.8086 13 16.8086C12.58 16.8086 12.2383 16.4669 12.2383 16.0468C12.2383 15.6268 12.58 15.2851 13 15.2851ZM9.3213 24.4765C9.63823 23.5709 10.4973 22.9023 11.4766 22.9023H14.5234C15.5026 22.9023 16.3618 23.5709 16.6787 24.4765H9.3213ZM15.4499 21.4948C15.1503 21.4183 14.8397 21.3789 14.5234 21.3789H11.4766C11.1602 21.3789 10.8497 21.4183 10.5501 21.4949C10.1936 19.4418 9.26778 17.5227 7.87642 15.9648L12.2383 9.42202V13.8927C11.3517 14.2072 10.7148 15.0539 10.7148 16.0469C10.7148 17.3069 11.74 18.332 13 18.332C14.26 18.332 15.2852 17.3069 15.2852 16.0469C15.2852 15.0539 14.6483 14.2072 13.7617 13.8927V9.42202L18.1236 15.9648C16.7322 17.5225 15.8064 19.4417 15.4499 21.4948Z" fill="#FF001F"/>
</svg>
