<svg width="40" height="40" viewBox="0 0 40 40" fill="none" xmlns="http://www.w3.org/2000/svg">
<path d="M37.0024 20.9851C36.8802 20.3467 36.3233 19.8851 35.675 19.8847H34.3692L34.2731 19.3078C34.1773 18.7283 33.722 18.2756 33.1432 18.1844C33.0147 18.1641 32.8849 18.1505 32.757 18.1329C32.9785 17.0964 32.7945 16.0142 32.2431 15.1098C32.5344 14.3522 32.4801 13.5046 32.0943 12.7906C31.7086 12.0766 31.0302 11.5679 30.2381 11.3986C29.7317 8.68134 27.3738 6.70613 24.6167 6.68948C24.549 6.68948 24.4888 6.6983 24.4246 6.70033C23.984 6.00667 23.2577 5.5463 22.4437 5.4448C21.6298 5.3433 20.8131 5.61126 20.2165 6.17559C19.4649 5.68577 18.5879 5.42463 17.6914 5.42372C16.2471 5.42965 14.8858 6.10178 14.0006 7.24609C13.0177 6.95875 11.9579 7.13518 11.1203 7.72556C10.2828 8.31594 9.75862 9.25617 9.69575 10.2807C8.66339 10.7158 7.99164 11.7288 7.99099 12.8515C7.99311 13.0461 8.01578 13.24 8.05861 13.4298C7.14563 14.8097 6.90707 16.5306 7.41011 18.1078C7.22888 18.1329 7.0436 18.1552 6.86913 18.181C6.28734 18.269 5.82789 18.722 5.73037 19.3037L5.63435 19.8827H4.32518C3.67793 19.8832 3.12172 20.3433 2.99842 20.9803L0.0372345 36.2224C-0.0784099 36.8193 0.07841 37.4368 0.464708 37.9056C0.851006 38.3744 1.42626 38.6453 2.03277 38.6441H16.1348C16.6947 39.5702 18.3961 40 20.0001 40C21.5872 40 23.2723 39.5803 23.8485 38.6441H37.9674C38.5737 38.6452 39.1488 38.3744 39.5351 37.9058C39.9214 37.4372 40.0783 36.8199 39.9629 36.223L37.0024 20.9851ZM10.0359 14.0786C9.48684 13.7477 9.2248 13.0906 9.39489 12.4714C9.56498 11.8521 10.1256 11.4222 10.7662 11.4197C11.2146 11.4183 11.6366 11.632 11.9016 11.9946C12.0456 12.1891 12.2821 12.2918 12.5221 12.264C12.7621 12.2362 12.9691 12.0822 13.0651 11.8599C13.1612 11.6377 13.1316 11.3809 12.9876 11.1864C12.5284 10.5711 11.8326 10.1775 11.0698 10.1017C11.2715 9.15221 12.1066 8.4725 13.0748 8.46982C13.1574 8.47402 13.2395 8.48307 13.321 8.49694C13.2666 8.63594 13.2192 8.77758 13.179 8.92135C13.0948 9.28023 13.3121 9.64076 13.6682 9.73295C14.0242 9.82514 14.3885 9.61519 14.4882 9.26033C14.5651 8.96236 14.6832 8.67665 14.8391 8.41152C15.439 7.40402 16.5211 6.7849 17.6914 6.77965C18.3284 6.78248 18.9507 6.97092 19.4828 7.32203C19.3814 7.60752 19.3277 7.90783 19.3238 8.21084C19.3238 8.58527 19.6266 8.88881 20.0001 8.88881C20.3735 8.88881 20.6763 8.58527 20.6763 8.21084C20.6763 7.42323 21.3131 6.78474 22.0987 6.78474C22.8843 6.78474 23.5212 7.42323 23.5212 8.21084C23.5212 8.58527 23.8239 8.88881 24.1974 8.88881C24.5709 8.88881 24.8736 8.58527 24.8736 8.21084C24.8736 8.15864 24.8608 8.10915 24.8581 8.05694C26.7943 8.17672 28.4225 9.55662 28.8627 11.4508C28.5472 11.5429 28.2508 11.691 27.9876 11.8881C27.7944 12.0335 27.6931 12.2711 27.722 12.5116C27.7509 12.7521 27.9056 12.9588 28.1277 13.054C28.3499 13.1491 28.6058 13.1182 28.7991 12.9729C29.3395 12.5718 30.0859 12.6037 30.5902 13.0496C31.0945 13.4955 31.2194 14.234 30.89 14.8217C30.7428 15.0812 30.5191 15.2886 30.2496 15.4156C29.967 15.5528 29.8158 15.8669 29.8845 16.1741C29.9531 16.4813 30.2237 16.7006 30.5377 16.7037C30.6368 16.7039 30.7348 16.6819 30.8244 16.6393C31.0036 16.5522 31.173 16.4461 31.3295 16.3227C31.6791 17.319 31.4599 18.4271 30.7574 19.2142L30.7412 19.2312C29.8603 20.188 28.4549 20.4466 27.2925 19.8658C27.1786 19.8055 27.0692 19.737 26.9652 19.661C27.4633 18.9609 27.5321 18.0413 27.1437 17.2746C27.035 17.0582 26.8194 16.9163 26.5781 16.9025C26.3368 16.8887 26.1064 17.005 25.9739 17.2076C25.8413 17.4102 25.8266 17.6683 25.9353 17.8847C26.1576 18.3328 26.019 18.8766 25.6093 19.1627C25.3688 19.3233 25.0717 19.374 24.7916 19.3024C24.5116 19.2308 24.275 19.0436 24.1406 18.7871C24.0325 18.5705 23.8173 18.4281 23.5761 18.4136C23.3349 18.3992 23.1043 18.5148 22.9712 18.717C22.8381 18.9192 22.8227 19.1772 22.9308 19.3939C23.3274 20.1965 24.1445 20.7034 25.0379 20.701C25.3288 20.699 25.6167 20.6422 25.8866 20.5336C26.1281 20.7456 26.3942 20.9277 26.6791 21.0759C27.6429 21.5768 28.7636 21.6806 29.8026 21.3654C29.1344 22.2802 28.1342 22.8951 27.0179 23.0773C26.6706 23.134 26.4247 23.4482 26.4525 23.7998C26.4802 24.1515 26.7722 24.4231 27.1241 24.4244C27.1601 24.4244 27.196 24.4217 27.2316 24.4163C27.6434 24.3448 28.0458 24.227 28.4312 24.0651C28.6396 24.4343 28.8086 24.8245 28.9357 25.2291C28.959 25.2998 28.9708 25.3737 28.9709 25.4481C28.9707 25.7412 28.7961 26.0058 28.5273 26.1207C28.2162 26.2413 27.8631 26.1461 27.6543 25.8854C27.1305 25.2688 26.4448 24.812 25.6749 24.5668C24.2136 24.0759 23.6496 23.6373 23.4103 23.16C23.7611 23.1161 24.1078 23.0435 24.4469 22.943C24.6779 22.8718 24.8534 22.6825 24.9074 22.4464C24.9613 22.2102 24.8856 21.9632 24.7086 21.7982C24.5316 21.6333 24.2803 21.5756 24.0493 21.6468C23.6699 21.7635 23.2782 21.8356 22.8821 21.8617C22.1191 21.9215 21.3526 21.8055 20.6411 21.5227C20.374 21.4183 20.0702 21.4941 19.8831 21.7119C18.8985 22.8457 17.2134 23.0384 15.9995 22.156C14.7855 21.2736 14.4443 19.608 15.2131 18.3173C15.3376 18.1089 15.3418 17.8497 15.224 17.6373C15.1062 17.425 14.8844 17.2917 14.6421 17.2878C14.3998 17.2839 14.1738 17.4099 14.0493 17.6183C13.888 17.8936 13.7582 18.1863 13.6625 18.4908C13.13 18.4628 12.7101 18.0261 12.7016 17.4915V17.4746C12.7012 17.2957 12.6296 17.1243 12.5026 16.9987C12.3756 16.873 12.2038 16.8034 12.0253 16.8054C11.6503 16.8091 11.3484 17.1154 11.3491 17.4915C11.3521 18.6939 12.2565 19.7016 13.4488 19.8312C13.4512 20.0585 13.4718 20.2852 13.5103 20.5091C12.0005 20.8367 10.4344 20.2926 9.45055 19.0985C8.46664 17.9045 8.22917 16.26 8.83492 14.8352C8.98621 14.9887 9.15508 15.1237 9.33803 15.2373C9.65748 15.4249 10.068 15.3201 10.2591 15.0022C10.4501 14.6842 10.3506 14.2714 10.0359 14.0759V14.0786ZM7.0605 19.5247C7.37224 19.4786 7.69413 19.438 8.01398 19.3959C9.26427 21.3991 11.6555 22.3717 13.9445 21.8081C14.5595 22.9784 15.6833 23.7945 16.9842 24.0156C18.285 24.2366 19.6143 23.8373 20.5796 22.9356C21.0391 23.073 21.5124 23.159 21.9909 23.1919C22.3175 24.4339 23.2615 25.1864 25.2449 25.8529C25.7795 26.0209 26.2565 26.3359 26.6217 26.762C27.0276 27.246 27.6247 27.5272 28.2554 27.5315C28.5313 27.5314 28.8042 27.4756 29.0581 27.3675C29.8246 27.039 30.3219 26.2839 30.322 25.4481C30.3226 25.2302 30.2879 25.0136 30.2192 24.8068C30.0671 24.3278 29.8668 23.8655 29.6214 23.4271C30.7713 22.5984 31.5723 21.3701 31.8685 19.9817C32.0125 19.8101 32.1427 19.6274 32.258 19.4352C32.4845 19.4644 32.7111 19.4902 32.9389 19.5281L35.3801 34.2495C30.6083 32.652 25.4481 32.652 20.6763 34.2495V25.7627C20.6763 25.3883 20.3735 25.0847 20.0001 25.0847C19.6266 25.0847 19.3238 25.3883 19.3238 25.7627V34.2522C14.5526 32.6532 9.39242 32.6513 4.62001 34.2468L7.0605 19.5247ZM1.50599 37.0386C1.37822 36.8839 1.32613 36.68 1.36399 36.4827L4.32518 21.2407H5.40714L3.28514 34.0264C3.21051 34.4918 3.38142 34.9628 3.7369 35.2713C4.09239 35.5797 4.58179 35.6818 5.03048 35.541C8.63543 34.3701 12.476 34.1258 16.1997 34.8305L15.9982 37.2881H2.03277C1.82877 37.2883 1.63545 37.1967 1.50599 37.0386ZM20.0001 38.6441C18.371 38.6441 17.4365 38.1614 17.2992 37.9464L17.5318 35.1329C18.2754 35.3185 19.0031 35.5631 19.7079 35.8644C19.7991 35.9084 19.8989 35.9316 20.0001 35.9322C20.1015 35.932 20.2016 35.9089 20.2929 35.8644C20.9973 35.5613 21.7248 35.3151 22.4683 35.1281L22.7009 37.9458C22.5636 38.1614 21.6291 38.6441 20.0001 38.6441V38.6441ZM38.4941 37.0386C38.3647 37.1967 38.1714 37.2883 37.9674 37.2881H24.004L23.8011 34.8258C27.5268 34.1225 31.3691 34.3689 34.9751 35.5424C35.4236 35.6813 35.912 35.5778 36.2661 35.2687C36.6202 34.9597 36.7898 34.489 36.7143 34.0244L34.5943 21.2414H35.6763L38.6382 36.482C38.6757 36.6798 38.6228 36.8841 38.4941 37.0386V37.0386Z" fill="#212225"/>
<path d="M17.7592 15.3797C17.4823 15.6308 17.4608 16.0593 17.7111 16.3369C18.2848 16.9719 19.0429 17.4102 19.8784 17.5898C19.5 18.1244 18.8864 18.4417 18.2325 18.4407C17.859 18.4407 17.5563 18.7442 17.5563 19.1186C17.5563 19.4931 17.859 19.7966 18.2325 19.7966C19.6324 19.8022 20.8885 18.9354 21.383 17.6224C23.0645 17.343 24.3957 16.0454 24.7216 14.3681C24.7719 14.1282 24.6892 13.8798 24.5051 13.7183C24.3211 13.5569 24.0645 13.5076 23.834 13.5895C23.6035 13.6714 23.4351 13.8716 23.3935 14.1132C23.2609 14.8125 22.8584 15.431 22.2736 15.8346C21.1486 16.5943 19.6397 16.4218 18.714 15.4278C18.4635 15.1503 18.0361 15.1287 17.7592 15.3797V15.3797Z" fill="#212225"/>
<path d="M15.4023 14.6441C15.7758 14.6441 16.0785 14.3405 16.0785 13.9661C16.0785 13.4986 16.2638 13.0502 16.5935 12.7197C16.9232 12.3891 17.3704 12.2034 17.8367 12.2034C18.2102 12.2034 18.5129 11.8999 18.5129 11.5254C18.5129 11.151 18.2102 10.8475 17.8367 10.8475C16.1195 10.8493 14.7279 12.2445 14.7261 13.9661C14.7261 14.1459 14.7973 14.3184 14.9241 14.4455C15.051 14.5726 15.223 14.6441 15.4023 14.6441V14.6441Z" fill="#212225"/>
<path d="M20.6762 1.35593V0.677966C20.6762 0.303536 20.3734 0 20 0C19.6265 0 19.3237 0.303536 19.3237 0.677966V1.35593C19.3237 1.73036 19.6265 2.0339 20 2.0339C20.3734 2.0339 20.6762 1.73036 20.6762 1.35593Z" fill="#212225"/>
<path d="M31.097 4.86507L30.4208 5.54304C30.245 5.71326 30.1745 5.96533 30.2364 6.20237C30.2983 6.4394 30.4829 6.62452 30.7194 6.68656C30.9558 6.74861 31.2072 6.67793 31.377 6.50168L32.0532 5.82372C32.229 5.6535 32.2995 5.40143 32.2376 5.16439C32.1757 4.92735 31.9911 4.74224 31.7547 4.68019C31.5182 4.61815 31.2668 4.68883 31.097 4.86507Z" fill="#212225"/>
<path d="M9.10101 6.70033C9.37447 6.70027 9.62098 6.53509 9.72562 6.28179C9.83027 6.02849 9.77244 5.73693 9.5791 5.54304L8.90288 4.86507C8.73309 4.68883 8.48167 4.61815 8.24524 4.68019C8.00881 4.74224 7.82418 4.92735 7.76229 5.16439C7.70041 5.40143 7.77091 5.6535 7.94669 5.82372L8.62292 6.50168C8.74971 6.62884 8.92168 6.70029 9.10101 6.70033Z" fill="#212225"/>
<path d="M14.3071 3.84745C14.3959 3.84726 14.4839 3.82976 14.566 3.79593C14.7318 3.72709 14.8635 3.59505 14.9321 3.42886C15.0007 3.26267 15.0006 3.07596 14.9319 2.90982L14.1549 1.0305C14.0659 0.801604 13.8603 0.63889 13.6176 0.605191C13.3749 0.571493 13.133 0.672082 12.9853 0.868117C12.8376 1.06415 12.8072 1.32496 12.9059 1.54982L13.6822 3.42915C13.787 3.68243 14.0336 3.84752 14.3071 3.84745V3.84745Z" fill="#212225"/>
<path d="M26.7286 0.663744C26.3837 0.520695 25.9884 0.684858 25.8454 1.03052L25.0684 2.90985C24.9995 3.07606 24.9993 3.26295 25.0679 3.42929C25.1366 3.59564 25.2684 3.7278 25.4343 3.79663C25.5165 3.83046 25.6044 3.84796 25.6933 3.84815C25.9668 3.84822 26.2134 3.68313 26.3181 3.42985L27.0944 1.55052C27.1634 1.38431 27.1635 1.19743 27.0949 1.03108C27.0263 0.864728 26.8945 0.732572 26.7286 0.663744V0.663744Z" fill="#212225"/>
<path d="M33.7443 11.92C33.8332 11.9198 33.9212 11.9021 34.0033 11.8678L35.8771 11.0895C36.1003 10.9968 36.2573 10.7918 36.2889 10.5517C36.3205 10.3115 36.2219 10.0727 36.0302 9.92525C35.8386 9.77775 35.583 9.74396 35.3598 9.83661L33.4853 10.6149C33.1862 10.7381 33.0159 11.0564 33.079 11.3743C33.1421 11.6923 33.4209 11.921 33.7443 11.92Z" fill="#212225"/>
<path d="M5.99667 11.8678C6.34176 12.0112 6.73746 11.847 6.8805 11.501C7.02353 11.155 6.85974 10.7583 6.51466 10.6149L4.64016 9.83661C4.29508 9.69339 3.89953 9.85776 3.75668 10.2037C3.61382 10.5497 3.77777 10.9463 4.12285 11.0895L5.99667 11.8678Z" fill="#212225"/>
</svg>
