<svg width="40" height="40" viewBox="0 0 40 40" fill="none" xmlns="http://www.w3.org/2000/svg">
<path d="M13.7177 19.7513C13.4307 19.5946 13.0714 19.7003 12.9147 19.9871L11.0424 23.4164L8.76394 19.2431C8.66019 19.0531 8.46105 18.9349 8.24457 18.9349C8.02816 18.9349 7.82894 19.0531 7.72527 19.243L4.26675 25.5775C4.2662 25.5785 4.26566 25.5794 4.26511 25.5804L3.20042 27.5304C3.04378 27.8173 3.14941 28.1768 3.4362 28.3333C3.52628 28.3825 3.62339 28.4058 3.71925 28.4058C3.9287 28.4058 4.13167 28.2943 4.23909 28.0975L4.93019 26.8318L5.61714 27.5188C5.84824 27.7499 6.22285 27.7499 6.45394 27.5188L6.82449 27.1482L7.82621 28.15C7.94176 28.2655 8.09316 28.3232 8.24457 28.3232C8.28699 28.3232 8.32926 28.3182 8.3709 28.3092L4.4905 35.4164C4.33394 35.7033 4.43948 36.0627 4.72628 36.2193C4.81636 36.2685 4.91347 36.2918 5.00933 36.2918C5.21878 36.2918 5.42175 36.1803 5.52917 35.9835L13.9534 20.554C14.1101 20.2674 14.0045 19.9079 13.7177 19.7513V19.7513ZM9.24637 25.8932L8.24465 26.895L7.24293 25.8932C7.01183 25.6622 6.63722 25.6622 6.40613 25.8932L6.03558 26.2638L5.52128 25.7495L8.24465 20.7614L10.3682 24.6512L9.77871 25.7311C9.59199 25.6945 9.39105 25.7486 9.24637 25.8932V25.8932Z" fill="#212225"/>
<path d="M2.67851 29.7213C2.39163 29.5647 2.03218 29.6703 1.87562 29.9571L0.0724911 33.2596C-0.0841497 33.5465 0.0214755 33.9059 0.308273 34.0625C0.398273 34.1117 0.49546 34.135 0.59132 34.135C0.800773 34.135 1.00374 34.0235 1.11116 33.8267L2.91429 30.5242C3.07093 30.2374 2.96531 29.8779 2.67851 29.7213V29.7213Z" fill="#212225"/>
<path d="M39.9276 30.0249L35.7348 22.3456C35.7344 22.3449 35.734 22.3442 35.7336 22.3434L34.5344 20.147C34.3778 19.8601 34.0183 19.7545 33.7315 19.9112C33.4447 20.0678 33.3391 20.4272 33.4957 20.7141L34.4788 22.5147L33.9645 23.029L33.5939 22.6585C33.3628 22.4274 32.9882 22.4274 32.7571 22.6585L31.7554 23.6602L30.7538 22.6585C30.5226 22.4274 30.1481 22.4274 29.9169 22.6585L29.5464 23.029L29.0318 22.5144L31.7554 17.5266L32.1684 18.2831C32.325 18.5699 32.6843 18.6754 32.9713 18.5189C33.2582 18.3624 33.3637 18.0028 33.2071 17.716L32.2748 16.0084C32.1711 15.8184 31.9719 15.7002 31.7554 15.7002C31.539 15.7002 31.3399 15.8184 31.2361 16.0083L28.0743 21.7985L20.5917 8.09353V6.07501H26.785C27.0041 6.07501 27.2052 5.95407 27.3078 5.76055C27.4104 5.56704 27.3978 5.33274 27.2749 5.15141L25.8429 3.0375L27.2749 0.923595C27.3978 0.742267 27.4104 0.507969 27.3078 0.314454C27.2051 0.121016 27.004 0 26.785 0H20.0001C19.6733 0 19.4084 0.264922 19.4084 0.59172V8.09353L14.238 17.5635C14.0814 17.8503 14.187 18.2098 14.4738 18.3664C14.7608 18.5232 15.1201 18.4174 15.2767 18.1306L16.6856 15.5499L17.3726 16.2369C17.6037 16.468 17.9783 16.468 18.2094 16.2369L18.5799 15.8663L19.5817 16.8681C19.6972 16.9836 19.8486 17.0414 20 17.0414C20.1514 17.0414 20.3029 16.9835 20.4185 16.8681L21.4201 15.8663L21.7907 16.2369C22.0218 16.468 22.3964 16.468 22.6275 16.2369L23.3145 15.5499L34.4707 35.9836C34.5782 36.1804 34.7811 36.2919 34.9907 36.2919C35.0864 36.2919 35.1836 36.2686 35.2736 36.2194C35.5605 36.0629 35.6661 35.7034 35.5095 35.4165L29.5256 24.4565C29.6839 24.4621 29.8439 24.405 29.9648 24.2842L30.3353 23.9136L31.337 24.9153C31.4525 25.0309 31.604 25.0886 31.7554 25.0886C31.9068 25.0886 32.0583 25.0308 32.1739 24.9153L33.1755 23.9136L33.5461 24.2842C33.7772 24.5153 34.1518 24.5153 34.3829 24.2842L35.0699 23.5972L38.8889 30.5919C38.9964 30.7887 39.1993 30.9002 39.4088 30.9002C39.5046 30.9002 39.6018 30.8768 39.6918 30.8277C39.9786 30.6712 40.0842 30.3118 39.9276 30.0249V30.0249ZM24.6384 3.36946L25.6695 4.89165H20.5917V1.18352H25.6695L24.6384 2.70571C24.5026 2.9061 24.5026 3.16899 24.6384 3.36946V3.36946ZM22.2092 14.9817L21.8386 14.6112C21.6074 14.3801 21.2329 14.3801 21.0017 14.6112L20.0001 15.6129L18.9984 14.6112C18.7673 14.3801 18.3927 14.3801 18.1616 14.6112L17.791 14.9817L17.2767 14.4674L20.0001 9.47939L22.7235 14.4674L22.2092 14.9817Z" fill="#212225"/>
<path d="M23.5647 26.0355H25.0492C25.2786 26.0355 25.4874 25.9028 25.5849 25.6951C25.6824 25.4874 25.6509 25.2421 25.5042 25.0656L20.4549 18.9906C20.3425 18.8554 20.1758 18.7771 19.9999 18.7771C19.824 18.7771 19.6572 18.8553 19.5449 18.9906L14.4956 25.0656C14.3489 25.2421 14.3175 25.4874 14.4149 25.6951C14.5123 25.9028 14.7211 26.0355 14.9506 26.0355H16.435L12.3343 39.2326C12.2785 39.4122 12.3114 39.6076 12.4229 39.7591C12.5343 39.9106 12.7112 40 12.8993 40H27.1004C27.2885 40 27.4654 39.9106 27.5769 39.7591C27.6885 39.6077 27.7213 39.4122 27.6655 39.2326L23.5647 26.0355ZM13.7028 38.8165L17.8036 25.6194C17.8593 25.4398 17.8265 25.2444 17.715 25.0929C17.6035 24.9414 17.4266 24.8521 17.2385 24.8521H16.2118L19.9999 20.2946L23.7879 24.8521H22.7612C22.5732 24.8521 22.3962 24.9414 22.2847 25.0929C22.1732 25.2443 22.1404 25.4398 22.1961 25.6194L26.2969 38.8165H13.7028Z" fill="#212225"/>
</svg>
