<svg width="17" height="17" viewBox="0 0 17 17" fill="none" xmlns="http://www.w3.org/2000/svg">
<path d="M8.5 0C3.80375 0 0 3.90255 0 8.7157C0 12.5672 2.43525 15.8334 5.81187 16.985C6.23687 17.067 6.39271 16.7972 6.39271 16.5659C6.39271 16.3589 6.38563 15.8105 6.38208 15.084C4.01767 15.6095 3.519 13.9147 3.519 13.9147C3.13225 12.9087 2.57337 12.6397 2.57337 12.6397C1.80342 12.0994 2.63287 12.1105 2.63287 12.1105C3.48642 12.1711 3.93479 13.0085 3.93479 13.0085C4.69271 14.3411 5.9245 13.9561 6.41042 13.7336C6.48692 13.1696 6.70579 12.786 6.94875 12.568C5.06104 12.3499 3.077 11.6005 3.077 8.26114C3.077 7.30989 3.40637 6.53234 3.95179 5.92256C3.85617 5.70231 3.56929 4.8161 4.02617 3.61577C4.02617 3.61577 4.73804 3.38221 6.36367 4.50937C7.04367 4.31572 7.76617 4.21963 8.48867 4.2152C9.21117 4.21963 9.93367 4.31572 10.6137 4.50937C12.2287 3.38221 12.9405 3.61577 12.9405 3.61577C13.3974 4.8161 13.1105 5.70231 13.0255 5.92256C13.5674 6.53234 13.8968 7.30989 13.8968 8.26114C13.8968 11.6093 11.9099 12.3462 10.0187 12.5606C10.3162 12.8222 10.5924 13.3566 10.5924 14.1734C10.5924 15.3397 10.5818 16.2769 10.5818 16.56C10.5818 16.7884 10.7305 17.0611 11.1662 16.9739C14.5669 15.8297 17 12.5613 17 8.7157C17 3.90255 13.1941 0 8.5 0V0Z" fill="white"/>
</svg>
