<svg width="60" height="69" viewBox="0 0 60 69" fill="none" xmlns="http://www.w3.org/2000/svg">
<path d="M59.9724 0L54.5088 61.2057L29.9499 68.0141L5.45873 61.2151L0.000854492 0H59.9724Z" fill="#212225"/>
<path d="M29.9866 62.8099L49.8314 57.3083L54.5001 5.00511H29.9866V62.8099Z" fill="#28292C"/>
<path d="M19.3656 20.0209H29.9866V12.5131H11.1606L11.3402 14.5273L13.1856 35.2168H29.9866V27.709H20.0518L19.3656 20.0209ZM21.0577 38.9708H13.521L14.5728 50.7592L29.952 55.0282L29.9866 55.0188V47.2076L29.9537 47.2163L21.5923 44.9585L21.0577 38.9708Z" fill="#EBEBEB"/>
<path d="M29.9607 35.2168H39.2058L38.3341 44.9538L29.9605 47.2139V55.0247L45.352 50.7592L45.4648 49.4907L47.2293 29.725L47.4124 27.709H29.9607V35.2168ZM29.9607 20.0026V20.0209H48.0956L48.246 18.3335L48.5883 14.5273L48.7677 12.5131H29.9607V20.0028V20.0026Z" fill="white"/>
</svg>
