<svg width="17" height="17" viewBox="0 0 17 17" fill="none" xmlns="http://www.w3.org/2000/svg">
<path d="M12.3983 0H4.60175C2.0643 0 0 2.0643 0 4.60175V12.3984C0 14.9357 2.0643 17 4.60175 17H12.3984C14.9357 17 17 14.9357 17 12.3984V4.60175C17 2.0643 14.9357 0 12.3983 0V0ZM8.5 13.1483C5.93687 13.1483 3.85169 11.0631 3.85169 8.5C3.85169 5.93687 5.93687 3.85169 8.5 3.85169C11.0631 3.85169 13.1483 5.93687 13.1483 8.5C13.1483 11.0631 11.0631 13.1483 8.5 13.1483ZM13.2595 4.94791C12.502 4.94791 11.8859 4.33184 11.8859 3.57439C11.8859 2.81695 12.502 2.20074 13.2595 2.20074C14.0169 2.20074 14.6331 2.81695 14.6331 3.57439C14.6331 4.33184 14.0169 4.94791 13.2595 4.94791Z" fill="white"/>
</svg>
