<svg width="70" height="51" viewBox="0 0 70 51" fill="none" xmlns="http://www.w3.org/2000/svg">
<path d="M26.3692 0.784622H14.6V31.8014C14.6 39.4755 11.9502 41.6176 7.32998 41.6176C5.16445 41.6176 3.22084 41.2505 1.70093 40.73L0.476929 49.8189C2.64247 50.5596 5.95803 51 8.55398 51C19.153 51 26.3692 46.0552 26.3692 31.8815V0.784622Z" fill="#FFD500"/>
<path d="M53.8045 0C41.3269 0 33.4308 6.37169 33.4308 14.8032C33.4308 22.0625 39.5149 26.5995 48.3612 29.5336C54.7547 31.5869 57.2885 33.4149 57.2885 36.422C57.2885 39.7204 54.3643 41.8465 48.84 41.8465C43.706 41.8465 39.0435 40.3032 35.8836 38.7666L33.4308 47.9201C36.436 49.4634 42.0414 51 48.1181 51C62.7318 51 69.5231 43.966 69.5231 35.6801C69.5231 28.6461 65.1773 24.1025 55.7859 20.8769C48.8326 18.3865 45.9158 16.9956 45.9158 13.8429C45.9158 11.3525 48.4422 9.08065 53.6572 9.08065C58.7912 9.08065 62.3194 10.6305 64.3744 11.5843L67.4533 2.31156C64.2271 1.04649 59.8887 0 53.8045 0Z" fill="#FFD500"/>
</svg>
