<svg width="26" height="26" viewBox="0 0 26 26" fill="none" xmlns="http://www.w3.org/2000/svg">
<path d="M17.3164 22.9531L21.3789 26V22.9531H26V9.19141H16.8086V0H0V13.7617H4.62109V16.8086L8.68359 13.7617H9.19141V22.9531H17.3164ZM24.4766 21.4297H19.8555V22.9531L17.8242 21.4297H10.7148V10.7148H24.4766V21.4297ZM8.17578 12.2383L6.14453 13.7617V12.2383H1.52344V1.52344H15.2852V9.19141H11.9473L8.42969 2.15622L4.70143 9.61253L6.064 10.2939L6.99611 8.42969H9.86327L10.2441 9.19141H9.19141V12.2383H8.17578ZM9.10155 6.90625H7.75783L8.42969 5.56253L9.10155 6.90625Z" fill="#FF001F"/>
<path d="M16.5021 17.2863C15.6853 17.9742 14.914 18.332 14.5234 18.332V19.8555C15.5049 19.8555 16.684 19.1372 17.5703 18.3761C18.4566 19.1372 19.6357 19.8555 20.6172 19.8555V18.332C20.2266 18.332 19.4554 17.9742 18.6385 17.2863C19.0809 16.7485 19.5462 16.0445 19.7495 15.2852H21.3789V13.7617H18.332V12.2383H16.8086V13.7617H13.7617V15.2852H15.3911C15.5944 16.0445 16.0598 16.7485 16.5021 17.2863V17.2863ZM17.5703 16.1847C17.3301 15.8757 17.1389 15.5692 17.0081 15.2846H18.1325C18.0018 15.5692 17.8105 15.8757 17.5703 16.1847Z" fill="#FF001F"/>
</svg>
