<svg width="17" height="17" viewBox="0 0 17 17" fill="none" xmlns="http://www.w3.org/2000/svg">
<path d="M15.7739 0H1.22605C0.548889 0 0 0.548889 0 1.22605V15.7739C0 16.4511 0.548889 17 1.22605 17H15.7739C16.4511 17 17 16.4511 17 15.7739V1.22605C17 0.548889 16.4511 0 15.7739 0V0ZM6.03 12.8496H3.95986V6.62156H6.03V12.8496ZM4.995 5.77112H4.98151C4.28683 5.77112 3.83755 5.29292 3.83755 4.69526C3.83755 4.08411 4.30058 3.61914 5.00874 3.61914C5.7169 3.61914 6.15269 4.08411 6.16618 4.69526C6.16618 5.29292 5.7169 5.77112 4.995 5.77112ZM13.4945 12.8496H11.4246V9.51775C11.4246 8.68041 11.1249 8.10934 10.3758 8.10934C9.804 8.10934 9.46341 8.49455 9.31374 8.8664C9.259 8.99947 9.24564 9.18546 9.24564 9.37158V12.8496H7.17564C7.17564 12.8496 7.20274 7.20586 7.17564 6.62156H9.24564V7.50339C9.52074 7.07901 10.0129 6.47539 11.1112 6.47539C12.4732 6.47539 13.4945 7.36552 13.4945 9.27846V12.8496Z" fill="white"/>
</svg>
