<svg width="66" height="58" viewBox="0 0 66 58" fill="none" xmlns="http://www.w3.org/2000/svg">
<path d="M53.6968 18.9033C53.0103 18.6678 52.3181 18.4497 51.6206 18.2491C51.7363 17.7791 51.8432 17.3071 51.9414 16.8331C53.513 9.2044 52.4855 3.05871 48.9765 1.03565C45.6122 -0.904647 40.1099 1.11842 34.5527 5.95431C34.0051 6.43192 33.4697 6.92329 32.9469 7.42794C32.5969 7.09238 32.2406 6.76332 31.8783 6.44096C26.0543 1.26969 20.2166 -0.909214 16.7113 1.11985C13.3502 3.06556 12.3547 8.84335 13.7695 16.0731C13.9103 16.789 14.0692 17.5013 14.2461 18.2092C13.4201 18.4438 12.6224 18.6938 11.8592 18.9598C5.03132 21.3402 0.670654 25.0713 0.670654 28.941C0.670654 32.938 5.35156 36.9471 12.4637 39.3777C13.0404 39.5739 13.6219 39.7557 14.2076 39.9229C14.0173 40.6855 13.8484 41.4533 13.701 42.2254C12.3521 49.3295 13.4056 54.9703 16.7579 56.904C20.2203 58.9005 26.0315 56.8483 31.6902 51.902C32.1375 51.511 32.5865 51.0963 33.036 50.6616C33.6022 51.2079 34.1836 51.7383 34.7794 52.2522C40.2606 56.9688 45.6739 58.8734 49.0233 56.9345C52.4826 54.932 53.6066 48.8722 52.1469 41.4995C52.0356 40.9364 51.9058 40.3613 51.7602 39.7756C52.1684 39.6551 52.5688 39.5307 52.9595 39.4011C60.3531 36.9516 65.1633 32.9914 65.1633 28.941C65.1633 25.0573 60.6622 21.3011 53.6968 18.9033Z" fill="#53C1DE"/>
<path d="M52.093 36.7861C51.7405 36.9028 51.3786 37.0156 51.0098 37.1249C50.1935 34.541 49.0918 31.7932 47.744 28.9547C49.0304 26.1833 50.0893 23.4709 50.8828 20.9035C51.5424 21.0948 52.1829 21.296 52.8 21.5086C58.7681 23.5628 62.4084 26.6005 62.4084 28.941C62.4084 31.4341 58.4767 34.6708 52.0933 36.7861H52.093ZM49.4443 42.0347C50.0896 45.2948 50.1818 48.2423 49.7543 50.5465C49.3701 52.617 48.5977 53.9973 47.6427 54.5501C45.6102 55.7266 41.2635 54.1973 36.5764 50.1638C36.0389 49.7014 35.4975 49.2076 34.9546 48.6853C36.7719 46.6976 38.588 44.3869 40.3605 41.8209C43.4784 41.5443 46.424 41.0919 49.0952 40.4746C49.2265 41.0055 49.3435 41.5258 49.4443 42.0347ZM22.6575 54.3469C20.6718 55.0482 19.0903 55.0682 18.1344 54.517C16.1 53.3439 15.2545 48.8143 16.4079 42.7391C16.5451 42.0212 16.7021 41.3071 16.8789 40.5979C19.5204 41.1821 22.4446 41.6026 25.5699 41.856C27.3541 44.3669 29.2228 46.6748 31.106 48.6959C30.7057 49.083 30.296 49.4603 29.8772 49.8273C27.3749 52.0147 24.8675 53.5663 22.6578 54.3469H22.6575ZM13.3548 36.7707C10.21 35.6958 7.61295 34.2989 5.83278 32.7748C4.23328 31.4047 3.42554 30.0447 3.42554 28.941C3.42554 26.5928 6.9268 23.5973 12.7662 21.5614C13.4992 21.307 14.2394 21.0741 14.986 20.863C15.7931 23.488 16.8518 26.2326 18.1293 29.0081C16.8352 31.8249 15.7614 34.6132 14.9469 37.269C14.4122 37.116 13.8813 36.9498 13.3548 36.7707ZM16.4733 15.5439C15.2611 9.34939 16.066 4.67676 18.0916 3.50425C20.2494 2.25525 25.0202 4.03628 30.0488 8.50112C30.3702 8.78654 30.693 9.08538 31.0164 9.39449C29.1428 11.4064 27.2913 13.6969 25.5226 16.1932C22.4894 16.4744 19.5858 16.9259 16.9165 17.5307C16.7521 16.8722 16.6043 16.2096 16.4733 15.5436V15.5439ZM44.2924 22.4131C43.662 21.3241 43.0081 20.2487 42.3313 19.1879C44.3892 19.4476 46.3606 19.793 48.2118 20.2157C47.6561 21.997 46.9634 23.8596 46.1477 25.7691C45.5517 24.6382 44.9331 23.5193 44.2924 22.4131ZM32.9478 11.3633C34.2185 12.7399 35.4912 14.2772 36.743 15.9449C34.2037 15.8249 31.66 15.8243 29.1206 15.9432C30.3736 14.2909 31.6571 12.7559 32.9478 11.3633ZM21.5304 22.432C20.8977 23.5294 20.2907 24.6414 19.71 25.7671C18.9076 23.8642 18.2212 21.9933 17.6606 20.1866C19.5007 19.7747 21.463 19.4382 23.5075 19.1827C22.8231 20.2502 22.1639 21.3336 21.5304 22.432ZM23.5663 38.8959C21.4542 38.6602 19.4622 38.3408 17.6227 37.9403C18.1921 36.1016 18.8937 34.1905 19.7131 32.2467C20.2963 33.3733 20.906 34.486 21.5415 35.5839C22.19 36.7038 22.8651 37.8082 23.5663 38.8959ZM33.024 46.7133C31.7182 45.3042 30.4158 43.7458 29.1437 42.0695C30.3784 42.118 31.6374 42.1426 32.917 42.1426C34.2316 42.1426 35.5311 42.1132 36.8101 42.0561C35.5543 43.7629 34.2861 45.3236 33.024 46.7133ZM46.1739 32.1477C47.0359 34.1125 47.7626 36.0134 48.3397 37.821C46.4696 38.2477 44.4508 38.5914 42.3236 38.8465C43.0053 37.7659 43.6654 36.6717 44.3036 35.5648C44.9523 34.4398 45.5759 33.3005 46.1739 32.1477ZM41.9169 34.1885C40.9399 35.8856 39.9081 37.5504 38.8229 39.1805C36.9094 39.3172 34.932 39.3877 32.917 39.3877C30.9102 39.3877 28.9579 39.3252 27.0778 39.2033C25.9645 37.5771 24.9131 35.9093 23.9259 34.2036C22.9433 32.5069 22.0255 30.7735 21.1745 29.0072C22.0233 27.2403 22.9384 25.506 23.9176 23.808V23.8085C24.8966 22.1101 25.9397 20.4495 27.0447 18.8302C28.9627 18.6852 30.9293 18.6093 32.9173 18.6093C34.9141 18.6093 36.8832 18.6858 38.8006 18.8319C39.8945 20.4487 40.9309 22.1036 41.908 23.7934C42.8907 25.4877 43.8179 27.2135 44.6883 28.9681C43.8269 30.7406 42.9026 32.4818 41.9172 34.1885H41.9169ZM47.6005 3.42233C49.76 4.66791 50.6 9.69047 49.2431 16.2771C49.1541 16.7062 49.0575 17.1337 48.9531 17.5592C46.2775 16.9419 43.372 16.4824 40.3299 16.1969C38.5578 13.6735 36.7216 11.379 34.8784 9.39306C35.3614 8.92741 35.8559 8.47383 36.3614 8.03274C41.1228 3.889 45.5728 2.25296 47.6005 3.42233Z" fill="#212225"/>
<path d="M32.917 23.182C36.0978 23.182 38.676 25.7605 38.676 28.941C38.676 32.1217 36.0978 34.7002 32.917 34.7002C29.7366 34.7002 27.1581 32.1217 27.1581 28.941C27.1581 25.7605 29.7366 23.182 32.917 23.182Z" fill="#53C1DE"/>
</svg>
