<svg width="26" height="26" viewBox="0 0 26 26" fill="none" xmlns="http://www.w3.org/2000/svg">
<path d="M23.8953 13.6296C23.817 13.2216 23.4601 12.9266 23.0447 12.9263H22.2079L22.1464 12.5576C22.085 12.1872 21.7932 11.8978 21.4223 11.8395C21.3399 11.8265 21.2567 11.8179 21.1748 11.8066C21.3167 11.1441 21.1989 10.4524 20.8455 9.87437C21.0322 9.39011 20.9974 8.84837 20.7502 8.39201C20.503 7.93566 20.0683 7.61051 19.5607 7.50231C19.2362 5.7655 17.7252 4.50301 15.9584 4.49237C15.915 4.49237 15.8765 4.49801 15.8353 4.49931C15.553 4.05594 15.0875 3.76169 14.5659 3.69681C14.0443 3.63193 13.521 3.80321 13.1387 4.16391C12.657 3.85083 12.0951 3.68392 11.5206 3.68334C10.595 3.68713 9.72271 4.11673 9.15548 4.84814C8.52564 4.66448 7.84646 4.77725 7.30977 5.1546C6.77309 5.53195 6.43716 6.13291 6.39688 6.78774C5.73532 7.06583 5.30486 7.71331 5.30444 8.43094C5.3058 8.55533 5.32033 8.67924 5.34778 8.80057C4.76273 9.68255 4.60985 10.7825 4.93221 11.7906C4.81608 11.8066 4.69734 11.8209 4.58554 11.8374C4.21272 11.8936 3.9183 12.1831 3.85581 12.555L3.79428 12.925H2.95534C2.54058 12.9253 2.18416 13.2194 2.10514 13.6266L0.207576 23.3688C0.13347 23.7503 0.233962 24.145 0.481507 24.4447C0.729051 24.7443 1.09768 24.9175 1.48634 24.9167H10.5231C10.8819 25.5086 11.9721 25.7833 13 25.7833C14.017 25.7833 15.0969 25.5151 15.4661 24.9167H24.5137C24.9023 24.9174 25.2708 24.7443 25.5183 24.4448C25.7658 24.1453 25.8664 23.7507 25.7924 23.3692L23.8953 13.6296ZM6.61484 9.21527C6.263 9.00372 6.09509 8.58377 6.20408 8.18796C6.31307 7.79215 6.67231 7.51735 7.08284 7.51574C7.37016 7.51489 7.64057 7.65146 7.81041 7.88321C7.90268 8.00752 8.05426 8.07317 8.20806 8.05542C8.36186 8.03767 8.4945 7.93922 8.55603 7.79715C8.61755 7.65509 8.59861 7.49099 8.50634 7.36667C8.2121 6.9734 7.76618 6.72182 7.27741 6.67334C7.40661 6.06646 7.94177 5.63201 8.56224 5.63031C8.61512 5.63299 8.66778 5.63878 8.71998 5.64764C8.68512 5.73648 8.65474 5.82702 8.62898 5.91891C8.57505 6.14829 8.7143 6.37873 8.94245 6.43765C9.1706 6.49658 9.40402 6.36239 9.46791 6.13557C9.51719 5.94512 9.59289 5.7625 9.69281 5.59304C10.0772 4.94908 10.7707 4.55336 11.5206 4.55001C11.9288 4.55181 12.3276 4.67226 12.6685 4.89667C12.6036 5.07915 12.5692 5.27109 12.5667 5.46477C12.5667 5.7041 12.7607 5.89811 13 5.89811C13.2393 5.89811 13.4333 5.7041 13.4333 5.46477C13.4333 4.96136 13.8414 4.55326 14.3449 4.55326C14.8483 4.55326 15.2564 4.96136 15.2564 5.46477C15.2564 5.7041 15.4504 5.89811 15.6897 5.89811C15.929 5.89811 16.123 5.7041 16.123 5.46477C16.123 5.43141 16.1148 5.39977 16.1131 5.36641C17.3539 5.44296 18.3972 6.32495 18.6793 7.53567C18.4771 7.59452 18.2872 7.68919 18.1185 7.81517C17.9947 7.90806 17.9298 8.05997 17.9483 8.21367C17.9668 8.36738 18.066 8.49952 18.2083 8.56034C18.3507 8.62115 18.5147 8.60139 18.6385 8.50851C18.9848 8.25213 19.4632 8.27257 19.7863 8.55757C20.1094 8.84256 20.1895 9.3146 19.9784 9.69021C19.8841 9.85606 19.7407 9.98866 19.568 10.0698C19.3869 10.1575 19.29 10.3583 19.3341 10.5546C19.3781 10.751 19.5514 10.8912 19.7526 10.8931C19.8162 10.8932 19.879 10.8792 19.9364 10.852C20.0512 10.7963 20.1597 10.7285 20.2601 10.6496C20.4841 11.2864 20.3436 11.9947 19.8935 12.4978L19.8831 12.5086C19.3185 13.1202 18.418 13.2854 17.6731 12.9142C17.6001 12.8757 17.53 12.8319 17.4633 12.7833C17.7825 12.3359 17.8266 11.7481 17.5777 11.258C17.5081 11.1197 17.3699 11.029 17.2153 11.0202C17.0606 11.0114 16.9131 11.0857 16.8281 11.2152C16.7431 11.3447 16.7337 11.5097 16.8034 11.648C16.9459 11.9344 16.857 12.282 16.5945 12.4648C16.4404 12.5675 16.2499 12.5999 16.0705 12.5542C15.8911 12.5084 15.7395 12.3887 15.6533 12.2248C15.584 12.0863 15.4461 11.9953 15.2916 11.986C15.137 11.9768 14.9892 12.0507 14.9039 12.18C14.8187 12.3092 14.8088 12.4741 14.8781 12.6126C15.1322 13.1256 15.6558 13.4496 16.2283 13.4481C16.4147 13.4468 16.5992 13.4105 16.7722 13.341C16.927 13.4765 17.0975 13.5929 17.28 13.6877C17.8976 14.0078 18.6158 14.0742 19.2816 13.8727C18.8534 14.4575 18.2125 14.8504 17.4971 14.9669C17.2746 15.0031 17.117 15.204 17.1348 15.4287C17.1525 15.6535 17.3397 15.8271 17.5652 15.8279C17.5882 15.8279 17.6113 15.8262 17.6341 15.8227C17.8979 15.7771 18.1558 15.7018 18.4028 15.5983C18.5363 15.8343 18.6447 16.0837 18.7261 16.3423C18.741 16.3875 18.7486 16.4347 18.7486 16.4823C18.7485 16.6696 18.6366 16.8387 18.4643 16.9121C18.265 16.9892 18.0387 16.9284 17.9049 16.7618C17.5693 16.3677 17.1299 16.0757 16.6365 15.9189C15.7001 15.6052 15.3387 15.3248 15.1853 15.0198C15.4102 14.9917 15.6323 14.9453 15.8496 14.8811C15.9976 14.8356 16.1101 14.7146 16.1447 14.5636C16.1793 14.4127 16.1307 14.2548 16.0173 14.1494C15.9039 14.044 15.7428 14.0071 15.5948 14.0526C15.3517 14.1272 15.1007 14.1733 14.8469 14.1899C14.3579 14.2282 13.8667 14.154 13.4108 13.9733C13.2396 13.9065 13.045 13.955 12.925 14.0942C12.2941 14.8189 11.2143 14.9421 10.4364 14.3781C9.65844 13.814 9.43979 12.7494 9.93244 11.9245C10.0123 11.7913 10.0149 11.6256 9.93946 11.4899C9.86399 11.3541 9.72185 11.269 9.56657 11.2665C9.4113 11.264 9.26648 11.3445 9.18668 11.4777C9.08329 11.6537 9.00014 11.8408 8.93881 12.0354C8.59757 12.0175 8.3285 11.7383 8.32304 11.3967V11.3858C8.32282 11.2715 8.27691 11.162 8.19553 11.0817C8.11415 11.0013 8.00405 10.9569 7.88971 10.9581C7.64935 10.9605 7.45589 11.1563 7.45638 11.3967C7.45831 12.1652 8.03785 12.8093 8.80188 12.8921C8.80343 13.0374 8.81662 13.1823 8.84131 13.3254C7.87377 13.5348 6.87024 13.187 6.23974 12.4238C5.60925 11.6607 5.45707 10.6095 5.84524 9.69887C5.94219 9.79695 6.05041 9.88321 6.16764 9.95584C6.37235 10.0758 6.63542 10.0088 6.75785 9.80555C6.88028 9.60234 6.81653 9.33846 6.61484 9.21354V9.21527ZM4.70818 12.6962C4.90794 12.6668 5.11421 12.6408 5.31918 12.6139C6.12038 13.8942 7.65273 14.5159 9.11951 14.1557C9.51363 14.9037 10.2338 15.4254 11.0674 15.5666C11.901 15.7079 12.7528 15.4527 13.3714 14.8763C13.6659 14.9642 13.9692 15.0191 14.2757 15.0401C14.485 15.834 15.09 16.315 16.3609 16.741C16.7036 16.8484 17.0092 17.0497 17.2432 17.3221C17.5033 17.6314 17.886 17.8112 18.2901 17.8139C18.4669 17.8138 18.6418 17.7782 18.8045 17.709C19.2957 17.4991 19.6144 17.0165 19.6144 16.4823C19.6148 16.343 19.5926 16.2045 19.5485 16.0723C19.4511 15.7662 19.3227 15.4707 19.1655 15.1905C19.9023 14.6608 20.4157 13.8758 20.6054 12.9883C20.6977 12.8787 20.7812 12.7619 20.855 12.639C21.0002 12.6577 21.1454 12.6741 21.2914 12.6984L22.8557 22.1078C19.7979 21.0867 16.4912 21.0867 13.4333 22.1078V16.6833C13.4333 16.444 13.2393 16.25 13 16.25C12.7607 16.25 12.5667 16.444 12.5667 16.6833V22.1095C9.50921 21.0875 6.2025 21.0863 3.14428 22.1061L4.70818 12.6962ZM1.14878 23.8905C1.0669 23.7916 1.03352 23.6613 1.05778 23.5352L2.95534 13.793H3.64868L2.28888 21.9652C2.24105 22.2627 2.35057 22.5637 2.57837 22.7609C2.80617 22.9581 3.11978 23.0233 3.40731 22.9333C5.71741 22.1849 8.17851 22.0287 10.5647 22.4792L10.4355 24.05H1.48634C1.35561 24.0501 1.23173 23.9916 1.14878 23.8905ZM13 24.9167C11.9561 24.9167 11.3572 24.6081 11.2693 24.4708L11.4183 22.6724C11.8948 22.7911 12.3611 22.9474 12.8128 23.14C12.8712 23.1682 12.9352 23.183 13 23.1833C13.065 23.1832 13.1292 23.1684 13.1876 23.14C13.6391 22.9463 14.1052 22.7889 14.5817 22.6694L14.7307 24.4703C14.6428 24.6081 14.0439 24.9167 13 24.9167V24.9167ZM24.8512 23.8905C24.7683 23.9916 24.6444 24.0501 24.5137 24.05H15.5658L15.4358 22.4761C17.8233 22.0266 20.2854 22.1841 22.5962 22.9342C22.8836 23.023 23.1966 22.9568 23.4235 22.7593C23.6504 22.5617 23.7591 22.2609 23.7107 21.9639L22.3522 13.7934H23.0455L24.9435 23.5348C24.9676 23.6612 24.9337 23.7917 24.8512 23.8905V23.8905Z" fill="#FF001F"/>
<path d="M11.564 10.0468C11.3866 10.2073 11.3728 10.4812 11.5332 10.6587C11.9008 11.0646 12.3866 11.3447 12.9221 11.4595C12.6796 11.8012 12.2863 12.004 11.8673 12.0033C11.628 12.0033 11.434 12.1973 11.434 12.4367C11.434 12.676 11.628 12.87 11.8673 12.87C12.7644 12.8736 13.5693 12.3195 13.8862 11.4803C14.9637 11.3017 15.8168 10.4724 16.0256 9.40031C16.0579 9.24697 16.0048 9.08816 15.8869 8.98497C15.769 8.88178 15.6045 8.8503 15.4568 8.90263C15.3091 8.95497 15.2012 9.08296 15.1745 9.23737C15.0896 9.68431 14.8317 10.0797 14.4569 10.3376C13.736 10.8232 12.769 10.713 12.1759 10.0776C12.0154 9.90022 11.7415 9.88645 11.564 10.0468V10.0468Z" fill="#FF001F"/>
<path d="M10.0533 9.57666C10.2927 9.57666 10.4867 9.38265 10.4867 9.14333C10.4867 8.84452 10.6054 8.55795 10.8167 8.34665C11.0279 8.13536 11.3145 8.01666 11.6133 8.01666C11.8527 8.01666 12.0467 7.82265 12.0467 7.58333C12.0467 7.344 11.8527 7.14999 11.6133 7.14999C10.5129 7.15119 9.62119 8.04294 9.62 9.14333C9.62 9.25826 9.66565 9.36848 9.74692 9.44974C9.82818 9.53101 9.9384 9.57666 10.0533 9.57666V9.57666Z" fill="#FF001F"/>
<path d="M13.4333 1.08334V0.650008C13.4333 0.410685 13.2393 0.216675 13 0.216675C12.7607 0.216675 12.5667 0.410685 12.5667 0.650008V1.08334C12.5667 1.32267 12.7607 1.51667 13 1.51667C13.2393 1.51667 13.4333 1.32267 13.4333 1.08334Z" fill="#FF001F"/>
<path d="M20.1109 3.32627L19.6776 3.7596C19.5649 3.8684 19.5198 4.02952 19.5594 4.18102C19.5991 4.33253 19.7174 4.45085 19.8689 4.49051C20.0204 4.53016 20.1815 4.48499 20.2903 4.37234L20.7237 3.939C20.8363 3.83021 20.8815 3.66909 20.8418 3.51759C20.8022 3.36608 20.6839 3.24776 20.5323 3.2081C20.3808 3.16845 20.2197 3.21362 20.1109 3.32627Z" fill="#FF001F"/>
<path d="M6.01592 4.49931C6.19116 4.49927 6.34913 4.39369 6.41618 4.23179C6.48324 4.06989 6.44618 3.88354 6.32229 3.75961L5.88896 3.32627C5.78016 3.21362 5.61904 3.16845 5.46754 3.2081C5.31603 3.24776 5.19771 3.36608 5.15805 3.51759C5.1184 3.66909 5.16358 3.83021 5.27622 3.93901L5.70956 4.37234C5.7908 4.45361 5.901 4.49928 6.01592 4.49931Z" fill="#FF001F"/>
<path d="M9.35182 2.67584C9.40875 2.67572 9.46512 2.66454 9.51778 2.64291C9.62399 2.59892 9.70837 2.51452 9.75234 2.4083C9.79631 2.30207 9.79626 2.18273 9.75222 2.07654L9.25432 0.875344C9.19728 0.72904 9.06556 0.625039 8.91001 0.6035C8.75447 0.581961 8.59944 0.646254 8.5048 0.771554C8.41015 0.896853 8.3907 1.06355 8.45395 1.20728L8.95141 2.40848C9.01854 2.57037 9.17656 2.67589 9.35182 2.67584V2.67584Z" fill="#FF001F"/>
<path d="M17.3117 0.640905C17.0906 0.549472 16.8373 0.6544 16.7457 0.875338L16.2478 2.07654C16.2036 2.18278 16.2035 2.30223 16.2475 2.40855C16.2915 2.51488 16.3759 2.59935 16.4823 2.64334C16.5349 2.66496 16.5913 2.67615 16.6482 2.67627C16.8235 2.67632 16.9815 2.57079 17.0486 2.4089L17.5461 1.2077C17.5903 1.10146 17.5904 0.982015 17.5464 0.875691C17.5024 0.769366 17.418 0.684897 17.3117 0.640905V0.640905Z" fill="#FF001F"/>
<path d="M21.8075 7.83553C21.8645 7.83543 21.9209 7.82409 21.9735 7.80216L23.1742 7.3047C23.3173 7.24548 23.4179 7.11445 23.4381 6.96096C23.4584 6.80746 23.3952 6.65483 23.2724 6.56056C23.1496 6.46628 22.9858 6.44469 22.8427 6.5039L21.6415 7.00137C21.4499 7.0801 21.3407 7.28352 21.3812 7.48676C21.4216 7.68999 21.6003 7.83616 21.8075 7.83553Z" fill="#FF001F"/>
<path d="M4.02659 7.80218C4.24772 7.89384 4.5013 7.78889 4.59296 7.56775C4.68462 7.34662 4.57966 7.09305 4.35852 7.00139L3.15732 6.50392C2.93619 6.41238 2.68271 6.51744 2.59117 6.73857C2.49963 6.9597 2.60469 7.21318 2.82582 7.30472L4.02659 7.80218Z" fill="#FF001F"/>
</svg>
