<svg width="306" height="193" viewBox="0 0 306 193" fill="none" xmlns="http://www.w3.org/2000/svg">
<path d="M39.3711 123.069C46.9427 143.008 54.2619 163.199 61.8335 183.137C62.3383 184.652 66.3765 182.885 66.8813 182.38C68.9004 181.371 71.4242 179.604 72.1814 177.585C86.8198 138.465 87.8293 96.3163 88.5865 54.9249C85.0531 56.944 81.5197 59.2155 77.9863 61.2346C88.8389 102.374 99.6915 143.513 110.797 184.652C111.049 185.157 111.554 185.156 112.058 185.156C117.106 185.661 122.406 181.623 125.183 177.585C127.959 173.547 128.716 168.247 129.726 163.451C132.502 151.589 135.278 139.474 137.802 127.612C143.102 103.888 148.15 80.1636 152.693 56.4393C155.469 43.0628 157.993 29.4339 160.264 16.0574C160.769 13.5335 155.721 15.805 154.964 16.0574C152.693 17.3193 149.916 19.086 149.412 21.8623C141.588 64.5156 132.754 106.917 123.163 149.318C121.902 155.122 120.387 160.927 119.125 166.985C118.368 169.761 117.863 172.537 117.106 175.566C116.854 176.828 116.601 178.09 115.844 179.099C115.844 179.352 115.34 179.856 115.34 180.109C114.582 181.118 115.34 180.614 117.611 178.847C120.387 177.837 120.892 177.332 119.378 177.332C119.882 177.585 120.387 177.585 120.64 177.837C109.787 136.698 98.9344 95.5592 87.8293 54.4202C87.0722 51.6439 77.2291 58.206 77.2291 60.7298C76.4719 101.364 75.7148 143.26 61.3287 181.623C64.8622 179.856 68.3956 177.837 71.6766 176.071C64.105 156.132 56.7858 135.941 49.2142 116.003C48.7094 113.479 37.8568 119.284 39.3711 123.069Z" fill="white"/>
<path d="M30.0328 187.933C21.704 145.28 13.1229 102.121 13.1229 58.4585C9.58945 59.7204 6.05603 60.73 2.52262 61.9919C17.6658 74.3589 32.5566 86.7258 47.6998 98.8404C50.9809 101.364 58.3001 100.102 58.3001 95.3069C59.562 64.5158 67.6384 34.2294 81.5197 6.46682C77.4815 6.46682 73.4433 6.7192 69.4051 6.7192C84.0435 31.2007 99.9439 55.1775 117.106 77.8923C120.64 82.4352 132.249 78.9018 127.959 73.0969C111.301 50.8869 95.6533 27.9197 81.5197 4.19534C78.9958 -0.0952385 71.6766 -0.347629 69.4051 4.44772C55.0191 32.715 47.1951 64.011 45.6808 95.8117C49.2142 94.5498 52.7476 93.5402 56.281 92.2783C41.1378 79.9114 26.247 67.5444 11.1038 55.4299C8.07513 52.906 0.251137 54.1679 0.503524 58.9633C0.755911 102.626 9.08468 145.532 17.4134 188.438C17.9182 191.466 20.6945 192.981 23.7231 192.981C25.9946 192.728 30.7899 190.962 30.0328 187.933Z" fill="white"/>
<path d="M158.245 165.723C172.883 164.966 184.241 152.851 183.231 138.213C182.727 130.389 178.941 123.574 171.622 120.293C168.088 118.779 164.555 118.022 160.769 119.284C157.74 120.545 154.964 122.817 152.693 125.593C142.597 137.708 146.13 154.618 152.693 167.237C156.731 174.809 163.293 179.856 171.874 180.614C178.688 181.118 185.503 178.342 190.551 174.051C204.432 162.189 205.694 143.513 206.199 126.35C202.413 124.836 198.627 123.322 194.589 121.807C196.608 131.651 198.375 141.494 200.394 151.337C201.151 154.87 201.656 158.404 204.179 161.18C207.46 164.713 212.256 166.985 216.799 168.247C230.68 172.032 244.561 162.946 246.076 148.56C246.833 140.989 244.814 133.67 241.028 127.108C236.99 120.041 229.67 112.974 220.837 113.479C214.527 113.731 212.003 121.303 215.032 126.35C219.07 133.417 228.661 136.698 236.233 137.96C239.514 138.465 244.057 138.213 247.085 140.232C250.114 142.251 252.385 146.289 253.395 149.822C255.666 157.899 252.638 166.985 246.076 172.285C244.057 173.799 254.404 180.109 256.676 178.09C266.267 170.518 268.538 157.646 261.976 147.551C258.443 142.251 252.89 138.465 247.085 135.941C243.552 134.427 240.018 133.67 236.233 132.912C233.961 132.408 230.175 132.66 228.156 131.651C226.389 130.641 225.632 128.117 225.632 126.098C225.632 123.069 227.147 121.807 229.166 120.041C229.418 120.041 229.67 119.788 229.923 119.788C226.642 117.769 225.632 117.517 226.894 118.526C227.399 119.284 227.904 119.788 228.409 120.293C229.166 121.303 229.923 122.565 230.68 123.827C232.194 126.855 233.456 129.884 234.466 133.165C237.494 145.027 232.699 158.151 220.585 162.189C219.323 162.694 217.808 162.946 216.546 162.946C216.042 162.946 215.284 162.946 214.78 162.946C213.013 163.199 215.284 162.946 215.032 163.199C214.78 163.451 213.518 159.161 213.265 158.656C212.761 156.637 212.508 154.87 212.003 152.851C210.237 143.765 208.47 134.932 206.703 125.846C206.199 123.322 195.346 119.536 195.093 121.303C194.589 133.922 194.336 147.046 188.027 158.404C185.503 163.199 181.969 167.489 177.426 170.518C175.155 172.032 172.883 173.042 170.36 173.799C169.098 174.051 167.836 174.304 166.574 174.556C165.564 174.556 164.05 174.304 166.069 175.061C168.34 176.071 166.574 174.809 166.069 174.051C159.507 164.208 155.721 150.327 159.759 138.97C161.526 133.922 164.807 129.127 169.602 126.098C170.107 125.846 170.612 125.593 171.369 125.341C173.136 124.584 173.641 125.341 170.36 123.574C166.321 121.555 168.593 122.817 169.602 124.836C170.864 127.612 171.874 130.641 172.126 133.67C173.388 147.046 162.788 158.908 149.664 159.665C146.888 159.918 149.916 162.442 150.673 162.946C152.188 164.461 155.469 165.975 158.245 165.723Z" fill="white"/>
<path d="M279.391 142.755C286.963 137.708 290.496 127.865 287.72 119.031C286.205 113.731 282.167 108.683 277.372 105.907C273.838 103.888 268.791 103.635 266.519 107.421C263.743 112.217 267.276 117.769 270.81 121.05C274.343 124.584 279.139 125.846 283.429 128.369C286.963 130.388 290.496 132.66 293.02 135.941C295.544 139.222 296.806 143.765 296.806 148.056C296.806 152.851 295.039 158.908 290.244 160.927C285.953 162.694 280.905 160.927 277.372 158.403C275.353 156.889 274.343 158.151 275.1 160.17C275.858 162.946 278.381 165.47 280.653 167.237C286.205 171.275 295.291 174.304 300.844 169.004C307.154 163.199 306.144 151.841 303.115 144.522C299.582 135.436 292.767 127.612 284.943 122.06C281.158 119.536 277.372 117.517 273.081 115.498C271.315 114.74 270.305 113.479 272.577 116.76C275.1 120.041 273.586 118.526 274.596 116.76C275.605 114.993 277.372 113.983 279.139 114.236C279.643 114.236 280.148 114.488 280.653 114.488C280.905 114.488 281.158 114.488 281.158 114.74C281.915 115.245 281.662 114.74 279.896 113.226C279.391 113.479 279.896 112.217 279.896 113.226C279.896 113.479 280.148 114.74 280.148 114.993C280.401 117.264 280.148 119.283 279.643 121.555C278.381 126.098 275.605 129.884 271.567 132.66C269.043 134.679 276.615 144.775 279.391 142.755Z" fill="white"/>
</svg>
