<svg width="268" height="387" viewBox="0 0 268 387" fill="none" xmlns="http://www.w3.org/2000/svg">
<path d="M28.2717 301.14C33.8242 273.63 37.1052 245.868 38.1148 217.853C34.329 219.367 30.7955 220.882 27.0097 222.396C41.1434 254.701 33.067 292.307 49.7245 323.855C50.7341 325.622 53.5104 325.622 55.0247 325.117C57.2962 324.36 59.3152 322.846 60.3248 320.574C95.4065 253.944 112.316 179.742 121.402 105.541C123.926 84.5927 125.945 63.3922 127.712 42.4441C123.926 43.2013 120.14 43.9584 116.102 44.7156C115.345 83.3308 114.84 121.946 114.84 160.561C114.588 198.419 114.083 236.025 115.345 273.883C116.102 294.831 117.869 316.031 122.16 336.475C123.169 341.018 129.479 338.746 131.498 336.727C147.903 321.584 157.494 300.131 166.075 279.688C175.161 257.982 182.228 235.52 187.023 212.553C189.799 199.681 191.818 186.557 193.333 173.685C189.547 174.947 185.761 175.957 181.723 177.219C186.771 227.444 183.49 277.921 179.956 328.146C179.704 330.417 181.218 331.932 183.49 331.932C190.556 332.184 198.128 327.641 200.147 320.574C202.419 313.255 191.061 315.022 189.294 320.322C189.042 321.331 189.042 321.584 188.285 322.341C188.79 321.584 189.042 322.089 187.528 322.089C188.79 323.351 190.052 324.612 191.061 325.874C194.595 274.892 197.876 223.405 192.828 172.423C192.575 169.647 189.042 169.647 187.023 170.152C184.499 170.909 181.723 173.18 181.218 175.957C176.17 220.124 163.803 264.04 143.36 303.917C138.06 314.012 132.003 323.855 123.421 331.679C126.45 331.679 129.731 331.932 132.76 331.932C125.188 295.588 125.441 258.235 125.188 221.386C124.936 183.276 125.188 144.913 125.693 106.803C125.945 85.3498 126.198 63.897 126.702 42.6965C126.955 35.6297 115.597 39.6678 115.093 44.968C109.288 118.665 99.4447 193.119 73.9537 263.03C66.8869 282.716 58.3057 302.15 48.715 320.827C52.2484 319.817 55.7818 318.555 59.3152 317.546C50.9865 302.15 49.2198 284.483 47.4531 267.321C45.6864 249.906 43.6673 232.239 36.6004 216.086C35.5909 214.067 32.0575 214.319 30.5431 215.077C28.5241 215.834 25.7478 218.105 25.4954 220.629C24.4859 248.644 21.2048 276.659 15.6523 303.917C15.1476 306.945 18.4286 308.207 20.7001 307.703C24.9906 306.693 27.7669 304.169 28.2717 301.14Z" fill="#F72E00"/>
<path d="M126.198 14.6813C125.693 14.1766 125.188 13.6718 124.683 13.167C124.936 13.4194 125.441 13.9242 125.693 14.1766C124.683 13.167 123.674 11.9051 122.917 10.3908C123.169 10.8955 123.421 11.1479 123.674 11.6527C122.917 10.1384 122.412 8.37166 121.907 6.85734C121.907 7.36211 122.16 7.86689 122.16 8.11928C121.907 7.10973 121.907 6.35257 121.907 5.34302C118.374 6.60495 114.84 7.86689 111.055 9.12882C111.559 9.38121 111.812 9.63359 112.064 10.1384C111.812 9.88598 111.307 9.38121 111.055 9.12882C111.559 9.63359 111.812 10.1384 112.064 10.6431C111.812 10.1384 111.559 9.88598 111.307 9.38121C111.559 10.1384 111.812 10.6431 112.064 11.4003C112.064 10.8955 111.812 10.3908 111.812 10.1384C112.064 10.8955 112.064 11.6527 111.812 12.6622C111.812 12.1575 112.064 11.6527 112.064 11.4003C112.064 12.1575 111.812 12.6622 111.559 13.167C111.812 12.6622 112.064 12.4098 112.316 11.9051C112.064 12.1575 112.064 12.4098 111.812 12.6622C111.055 13.6718 110.802 15.1861 111.307 16.448C111.812 17.71 113.074 18.9719 114.336 19.4767C117.112 20.7386 120.898 20.2338 122.917 17.71C123.674 16.7004 124.431 15.4385 124.683 13.9242C124.936 13.167 124.936 12.1575 124.936 11.4003C124.936 10.6431 124.683 9.63359 124.683 8.87643C124.431 7.6145 123.926 6.35257 123.169 5.09063C122.917 4.58586 122.412 4.08109 121.907 3.57631C121.402 3.07154 120.898 2.56677 120.393 2.06199C119.383 1.55722 118.626 1.05245 117.617 0.800058C116.355 0.547672 114.84 0.547673 113.578 1.05245C111.055 1.55722 109.288 3.32393 109.288 5.59541C109.288 11.9051 112.316 17.9624 117.364 22.0005C118.626 23.0101 120.14 23.5149 121.907 23.5149C123.422 23.5149 125.188 23.0101 126.45 22.0005C127.46 20.991 128.469 19.9815 128.217 18.4671C127.964 16.9528 127.46 15.4385 126.198 14.6813Z" fill="#F72E00"/>
<path d="M197.875 143.146C197.37 140.117 197.623 137.089 198.885 134.312C194.847 134.312 190.556 134.312 186.518 134.06C186.77 134.312 187.023 134.565 187.275 134.565L187.023 134.312C190.051 137.341 191.061 142.136 189.042 146.175C193.332 146.175 197.37 146.427 201.661 146.427C199.642 143.903 197.623 141.379 195.856 138.603C195.604 138.098 194.342 138.098 194.089 138.098C192.575 137.846 191.061 137.846 189.546 137.846C188.032 137.846 186.518 137.846 185.003 137.846C184.751 137.846 182.984 138.098 183.237 138.351C185.003 141.127 186.77 143.651 189.042 146.175C189.546 146.679 190.304 146.679 190.808 146.679C192.323 146.932 193.837 146.932 195.351 146.932C196.866 146.932 198.38 146.932 199.894 146.932C200.399 146.932 201.409 146.932 201.661 146.427C203.68 142.136 202.418 136.836 198.632 133.808C198.38 133.555 197.875 133.555 197.623 133.555C197.118 133.555 196.361 133.303 195.856 133.303C194.594 133.051 193.08 133.051 191.818 133.051C190.556 133.051 189.294 133.051 188.284 133.051C187.78 133.051 186.518 133.051 186.518 133.555C185.256 136.332 185.003 139.36 185.508 142.389C185.508 142.894 187.275 142.894 187.275 142.894C188.789 143.146 190.304 143.146 191.818 143.146C192.07 143.651 197.875 143.651 197.875 143.146Z" fill="#F72E00"/>
<path d="M28.5239 190.09C28.5239 190.09 28.2715 190.09 28.5239 190.09C28.2715 189.838 28.2715 189.838 28.5239 190.09C29.2811 191.352 29.0287 190.595 28.7763 190.595C28.5239 190.343 28.5239 190.09 28.2716 189.838C28.0192 189.585 28.0192 189.333 27.7668 189.081C27.262 188.324 28.5239 190.09 28.5239 190.09C28.2715 189.838 28.2716 189.838 28.2716 189.585C28.2716 189.585 28.0192 189.333 28.0192 189.081C27.7668 188.324 28.5239 190.343 28.5239 190.09C28.2715 190.09 28.5239 190.343 28.5239 190.09C28.0192 189.081 28.7763 190.847 28.7763 190.847C28.7763 190.595 28.7763 190.595 28.7763 190.343C28.5239 189.838 29.0287 191.857 29.0287 191.1C29.0287 190.847 29.0287 190.595 29.0287 190.343C29.0287 190.595 29.0287 191.1 29.0287 191.352C28.5239 191.1 28.5239 190.595 28.5239 190.09C28.7763 190.343 28.7763 190.595 28.5239 190.847C28.7763 190.343 29.0287 189.838 29.2811 189.333C29.0287 189.585 29.0287 189.585 28.7763 189.838C29.5335 189.081 30.543 188.324 31.805 188.324C31.5526 188.324 31.3002 188.324 31.3002 188.324C31.805 188.324 32.3097 188.324 33.0669 188.576C32.8145 188.576 32.5621 188.324 32.3097 188.324C32.5621 188.324 32.5621 188.576 32.8145 188.576C32.5621 188.324 32.3097 188.071 32.0574 187.819C32.0574 187.819 32.3097 187.819 32.3097 188.071C31.3002 187.314 30.7954 186.304 30.2906 185.547C29.7859 184.538 29.2811 183.781 29.0287 183.023C28.7763 182.519 28.7763 182.014 28.5239 181.509V181.761C28.5239 181.509 28.5239 181.004 28.5239 180.752C28.5239 181.004 28.5239 181.257 28.5239 181.509C28.5239 181.257 28.5239 181.004 28.7763 180.752C28.7763 181.257 28.5239 181.509 28.2716 182.014C28.5239 181.761 28.5239 181.761 28.7763 181.509C28.5239 181.761 28.5239 181.761 28.2716 181.761C28.5239 181.761 28.7763 181.761 28.7763 181.761C28.5239 181.761 28.2715 181.509 28.0192 181.509C28.2715 181.509 28.5239 181.761 28.7763 181.761C28.2716 181.509 27.7668 181.257 27.262 181.004C27.5144 181.257 27.7668 181.509 28.0192 181.761C27.7668 181.761 27.7668 181.509 27.5144 181.257L27.262 181.004C28.0192 181.761 28.2715 182.014 28.0192 181.761C28.0192 181.761 28.0192 181.761 27.7668 181.509C27.5144 181.004 27.5144 181.257 28.2716 182.266C28.2716 182.266 28.2715 182.014 28.0192 182.014C28.7763 183.276 29.0287 183.528 28.5239 183.023C27.7668 181.761 27.0096 180.247 25.7477 179.49C25.4953 179.238 24.2334 178.228 23.4762 178.48C22.719 178.985 22.9714 179.995 22.9714 180.752C23.2238 182.266 23.7286 183.781 24.4858 185.043C25.7477 187.566 27.5144 189.838 29.7859 191.352C30.2906 191.605 30.7954 191.857 31.0478 192.109C31.5526 192.362 31.805 192.614 32.3097 192.614C32.8145 192.866 33.3193 192.614 33.5717 192.362C34.0764 191.857 34.3288 191.352 34.5812 190.847C35.086 189.333 34.8336 187.819 34.3288 186.557C33.8241 184.79 33.0669 183.023 32.0574 181.509C31.0478 180.247 30.2906 178.985 28.7763 177.976C27.262 176.966 25.2429 176.966 23.4762 177.723C22.719 178.228 21.9619 178.985 21.4571 179.742C20.6999 180.752 20.7 182.014 20.7 183.276C20.9523 188.828 23.981 193.624 27.262 197.914C27.5144 198.419 28.0192 198.924 28.5239 199.176C28.7763 199.429 29.2811 199.681 29.7859 199.933C30.543 199.933 31.0478 199.429 31.0478 198.671C31.0478 197.409 30.543 196.148 30.0383 194.886C30.2906 192.867 29.5335 191.605 28.5239 190.09Z" fill="#F72E00"/>
<path d="M1.51843 330.922C23.9808 363.228 62.0912 381.904 100.706 385.69C143.107 389.728 185.256 375.342 220.842 353.132C230.938 346.823 240.781 340.008 249.867 332.437C258.196 325.37 266.02 317.041 267.534 305.684C268.039 301.645 256.934 296.093 256.429 300.636C255.167 309.974 248.857 317.293 242.043 323.351C234.724 329.66 226.395 335.465 218.319 340.765C201.409 351.87 183.237 361.461 164.055 368.023C128.974 380.138 90.1062 381.904 55.5292 367.014C38.1145 359.442 22.4665 347.58 11.6139 331.932C9.84719 329.66 7.07093 327.389 4.04229 327.137C1.26604 327.137 0.00410467 328.651 1.51843 330.922Z" fill="#F72E00"/>
</svg>
